
        <svg xmlns="http://www.w3.org/2000/svg" xmlns:xlink="http://www.w3.org/1999/xlink" version="1.1" width="3174.927113702624" 
        height="1285.7142857142858" viewBox="0 0 3174.927113702624 1285.7142857142858">
			<rect fill="#f8f9fa" width="3174.927113702624" height="1285.7142857142858"/>
			<g transform="scale(8.746355685131196) translate(10, 10)">
				<defs id="SvgjsDefs1033"></defs><g id="SvgjsG1034" featureKey="symbolContainer" transform="matrix(1,0,0,1,20,20)" fill="#000000">    <path xmlns="http://www.w3.org/2000/svg" fill-rule="nonzero" d="             M0,0             H103             V107             H0,0             z             M4,4             v99             h95             v-99             z     "></path></g><g id="SvgjsG1035" featureKey="monogramFeature-0" transform="matrix(1.8739928608842613,0,0,1.8739928608842613,28.76473878746961,0.07136011153630051)" fill="#000000"><path d="M4.3945 60 l0 -41.895 l7.7637 0 l22.119 30.527 l0 -30.527 l7.4707 0 l0 41.895 l-7.7637 0 l-22.119 -31.172 l0 31.172 l-7.4707 0 z"></path></g><g id="SvgjsG1036" featureKey="nameFeature-0" transform="matrix(1.8195051249237026,0,0,1.8195051249237026,139.0698700754069,13.184863869582884)" fill="#000000"><path d="M14.04 18.76 c2.64 0 4.5532 0.66676 5.74 2.0001 s1.78 3.4533 1.78 6.36 l0 12.88 l-5.68 0 l0 -11.72 c0 -1.7067 -0.27332 -2.9734 -0.82 -3.8 s-1.4867 -1.24 -2.82 -1.24 c-1.5467 0 -2.6667 0.46668 -3.36 1.4 s-1.04 2.4666 -1.04 4.6 l0 10.76 l-5.68 0 l0 -20.68 l5.4 0 l0 2.88 l0.12 0 c1.4133 -2.2933 3.5333 -3.44 6.36 -3.44 z M35.92 18.76 c3.3067 0 5.92 1.0067 7.84 3.02 s2.88 4.6468 2.88 7.9 c0 3.28 -0.98 5.9132 -2.94 7.9 s-4.5532 2.98 -7.78 2.98 c-3.28 0 -5.88 -1.0067 -7.8 -3.02 s-2.88 -4.6332 -2.88 -7.86 c0 -3.3333 0.98 -5.9868 2.94 -7.96 s4.54 -2.96 7.74 -2.96 z M30.919999999999998 29.68 c0 2.1067 0.42668 3.7333 1.28 4.88 s2.0933 1.72 3.72 1.72 c1.68 0 2.94 -0.58668 3.78 -1.76 s1.26 -2.7866 1.26 -4.84 c0 -2.1333 -0.43332 -3.7733 -1.3 -4.92 s-2.1267 -1.72 -3.78 -1.72 c-1.6 0 -2.8267 0.57332 -3.68 1.72 s-1.28 2.7867 -1.28 4.92 z M59.879999999999995 18.76 c1.9467 0 3.6801 0.45328 5.2 1.36 s2.7133 2.22 3.58 3.94 s1.3 3.7 1.3 5.94 c0 0.21332 -0.01332 0.56 -0.04 1.04 l-14.92 0 c0.05332 1.6533 0.48664 2.94 1.3 3.86 s2.06 1.38 3.74 1.38 c1.04 0 1.9933 -0.26 2.86 -0.78 s1.42 -1.1533 1.66 -1.9 l5 0 c-1.4667 4.64 -4.6932 6.96 -9.68 6.96 c-1.8933 -0.02668 -3.6466 -0.44 -5.26 -1.24 s-2.9 -2.0467 -3.86 -3.74 s-1.44 -3.66 -1.44 -5.9 c0 -2.1067 0.48668 -4.0268 1.46 -5.76 s2.2666 -3.0266 3.88 -3.88 s3.3533 -1.28 5.22 -1.28 z M64.24 27.439999999999998 c-0.26668 -1.5467 -0.76 -2.6667 -1.48 -3.36 s-1.7467 -1.04 -3.08 -1.04 c-1.3867 0 -2.48 0.39332 -3.28 1.18 s-1.2667 1.86 -1.4 3.22 l9.24 0 z M79.12 11.440000000000001 l0 28.56 l-5.68 0 l0 -28.56 l5.68 0 z M89.44 11.440000000000001 l0 4.68 l-5.68 0 l0 -4.68 l5.68 0 z M89.44 19.32 l0 20.68 l-5.68 0 l0 -20.68 l5.68 0 z M102.39999999999999 18.76 c2.7733 0 4.94 0.56004 6.5 1.68 s2.4333 2.76 2.62 4.92 l-5.4 0 c-0.08 -0.98668 -0.44 -1.7 -1.08 -2.14 s-1.5733 -0.66 -2.8 -0.66 c-1.0667 0 -1.86 0.16 -2.38 0.48 s-0.78 0.8 -0.78 1.44 c0 0.48 0.17332 0.88 0.52 1.2 s0.87336 0.6 1.58 0.84 s1.4867 0.44 2.34 0.6 c2.5867 0.50668 4.4132 1.0267 5.48 1.56 s1.8467 1.1733 2.34 1.92 s0.74 1.6667 0.74 2.76 c0 2.32 -0.84668 4.1 -2.54 5.34 s-3.9933 1.86 -6.9 1.86 c-3.04 0 -5.4068 -0.65332 -7.1 -1.96 s-2.5666 -3.08 -2.62 -5.32 l5.4 0 c0 1.0667 0.41332 1.9134 1.24 2.54 s1.8667 0.94 3.12 0.94 c1.0667 0 1.9534 -0.23332 2.66 -0.7 s1.06 -1.1134 1.06 -1.94 c0 -0.53332 -0.22 -0.97332 -0.66 -1.32 s-1.06 -0.65336 -1.86 -0.92004 s-2.04 -0.57336 -3.72 -0.92004 c-1.3333 -0.26668 -2.52 -0.62668 -3.56 -1.08 s-1.8333 -1.0466 -2.38 -1.78 s-0.82 -1.6333 -0.82 -2.7 c0 -1.36 0.32668 -2.5467 0.98 -3.56 s1.6533 -1.78 3 -2.3 s3.02 -0.78 5.02 -0.78 z"></path></g><g id="SvgjsG1037" featureKey="sloganFeature-0" transform="matrix(1.0900670022949523,0,0,1.0900670022949523,143.15260949467387,91.1354394029049)" fill="#000000"><path d="M8.5 5.720000000000001 l5.34 14.28 l-3.26 0 l-1.08 -3.18 l-5.34 0 l-1.12 3.18 l-3.18 0 l5.42 -14.28 l3.22 0 z M6.84 9.24 l-1.86 5.24 l3.7 0 l-1.8 -5.24 l-0.04 0 z M18.16 5.720000000000001 l-0.000019531 8.94 c0 1.0533 0.23666 1.8233 0.71 2.31 s1.2167 0.73 2.23 0.73 c1.0933 0 1.86 -0.24334 2.3 -0.73 s0.66 -1.2567 0.66 -2.31 l0 -8.94 l3.14 0 l0 8.94 c0 1.7867 -0.51 3.18 -1.53 4.18 s-2.5434 1.5 -4.57 1.5 c-2.0666 0 -3.5966 -0.5 -4.59 -1.5 s-1.49 -2.3934 -1.49 -4.18 l0 -8.94 l3.14 0 z M40.480000000000004 5.720000000000001 l0 2.64 l-4.28 0 l0 11.64 l-3.14 0 l0 -11.64 l-4.28 0 l0 -2.64 l11.7 0 z M45.260000000000005 5.720000000000001 l0 5.48 l5.78 0 l0 -5.48 l3.14 0 l0 14.28 l-3.14 0 l0 -6.16 l-5.78 0 l0 6.16 l-3.14 0 l0 -14.28 l3.14 0 z M63.34 5.380000000000001 c2.1066 0 3.8034 0.7 5.09 2.1 s1.93 3.2134 1.93 5.44 c0 2.1734 -0.64666 3.9534 -1.94 5.34 s-2.9866 2.08 -5.08 2.08 c-2.1066 0 -3.8034 -0.69334 -5.09 -2.08 s-1.93 -3.1666 -1.93 -5.34 c0 -2.2134 0.64666 -4.0234 1.94 -5.43 s2.9866 -2.11 5.08 -2.11 z M59.46 12.92 c0 1.44 0.33998 2.5966 1.02 3.47 s1.6333 1.31 2.86 1.31 c1.2 0 2.1466 -0.43 2.84 -1.29 s1.04 -2.0234 1.04 -3.49 c0 -1.5333 -0.34334 -2.7334 -1.03 -3.6 s-1.6433 -1.3 -2.87 -1.3 c-1.2 0 -2.1434 0.43334 -2.83 1.3 s-1.03 2.0666 -1.03 3.6 z M80.2 5.720000000000001 c1.2 0 2.1968 0.37 2.99 1.11 s1.19 1.6833 1.19 2.83 c0 1.7867 -0.75334 2.98 -2.26 3.58 l0 0.04 c0.50666 0.14666 0.90332 0.39 1.19 0.73 s0.50332 0.73666 0.64998 1.19 s0.24 1.18 0.28 2.18 c0.05334 1.3067 0.24 2.18 0.56 2.62 l-3.14 0 c-0.17334 -0.44 -0.30668 -1.2667 -0.40002 -2.48 c-0.10666 -1.28 -0.34 -2.1166 -0.7 -2.51 s-0.94666 -0.59 -1.76 -0.59 l-3.16 0 l0 5.58 l-3.14 0 l0 -14.28 l7.7 0 z M79.10000000000001 12.18 c0.66666 0 1.19 -0.15 1.57 -0.45 s0.57 -0.83 0.57 -1.59 c0 -0.72 -0.18666 -1.23 -0.56 -1.53 s-0.90668 -0.45 -1.6 -0.45 l-3.44 0 l0 4.02 l3.46 0 z M99.24000000000001 5.720000000000001 c3.0266 0 4.54 1.1733 4.54 3.52 c0 1.3467 -0.64666 2.3466 -1.94 3 c0.88 0.25334 1.5367 0.69668 1.97 1.33 s0.65 1.3967 0.65 2.29 c0 1.28 -0.46334 2.29 -1.39 3.03 s-2.1434 1.11 -3.65 1.11 l-6.92 0 l0 -14.28 l6.74 0 z M98.84 11.5 c1.2667 0 1.9 -0.56666 1.9 -1.7 c0 -1.0933 -0.70666 -1.64 -2.12 -1.64 l-2.98 0 l0 3.34 l3.2 0 z M99.02000000000001 17.56 c1.5333 0 2.3 -0.62666 2.3 -1.88 c0 -1.36 -0.74666 -2.04 -2.24 -2.04 l-3.44 0 l0 3.92 l3.38 0 z M109.72 5.720000000000001 l0 11.64 l6.96 0 l0 2.64 l-10.1 0 l0 -14.28 l3.14 0 z M124.84 5.380000000000001 c2.1066 0 3.8034 0.7 5.09 2.1 s1.93 3.2134 1.93 5.44 c0 2.1734 -0.64666 3.9534 -1.94 5.34 s-2.9866 2.08 -5.08 2.08 c-2.1066 0 -3.8034 -0.69334 -5.09 -2.08 s-1.93 -3.1666 -1.93 -5.34 c0 -2.2134 0.64666 -4.0234 1.94 -5.43 s2.9866 -2.11 5.08 -2.11 z M120.96000000000001 12.92 c0 1.44 0.33998 2.5966 1.02 3.47 s1.6333 1.31 2.86 1.31 c1.2 0 2.1466 -0.43 2.84 -1.29 s1.04 -2.0234 1.04 -3.49 c0 -1.5333 -0.34334 -2.7334 -1.03 -3.6 s-1.6433 -1.3 -2.87 -1.3 c-1.2 0 -2.1434 0.43334 -2.83 1.3 s-1.03 2.0666 -1.03 3.6 z M140.4 5.380000000000001 c1.6267 0 3.0066 0.47336 4.14 1.42 s1.76 2.1534 1.88 3.62 l-3 0 c-0.18666 -0.8 -0.54666 -1.4 -1.08 -1.8 s-1.18 -0.6 -1.94 -0.6 c-1.2267 0 -2.18 0.44334 -2.86 1.33 s-1.02 2.0766 -1.02 3.57 c0 1.4667 0.34666 2.63 1.04 3.49 s1.64 1.29 2.84 1.29 c2.0534 0 3.1866 -1.0267 3.4 -3.08 l-3.16 0 l0 -2.34 l6 0 l0 7.72 l-2 0 l-0.32 -1.62 c-1 1.3067 -2.3066 1.96 -3.92 1.96 c-2.1066 0 -3.8034 -0.69334 -5.09 -2.08 s-1.93 -3.1666 -1.93 -5.34 c0 -2.2134 0.64 -4.0234 1.92 -5.43 s2.98 -2.11 5.1 -2.11 z"></path></g>
			</g>
		</svg>
	